Coordinates
version=1
nRows=22
nColumns=24
inDegrees=yes

Units are S.I. units (second, meters, Newtons, ...)
Angles are in degrees.

endheader
time	pelvis_tilt	pelvis_list	pelvis_rotation	pelvis_tx	pelvis_ty	pelvis_tz	hip_flexion_r	hip_adduction_r	hip_rotation_r	knee_angle_r	ankle_angle_r	subtalar_angle_r	mtp_angle_r	hip_flexion_l	hip_adduction_l	hip_rotation_l	knee_angle_l	ankle_angle_l	subtalar_angle_l	mtp_angle_l	lumbar_extension	lumbar_bending	lumbar_rotation
      0.61200000	     -9.74031749	      1.89063911	     12.52424885	     -0.73867910	      0.86768614	      0.26465241	     39.57561865	     -6.09112133	     -9.81071652	     -7.20346128	      2.74370201	     -0.09974254	      5.88531073	    -11.70283058	      1.69487972	      7.79224493	     -9.88334885	     12.27275360	      4.67375342	     18.53673868	      3.67080587	     -5.28635728	    -14.82099450
      0.61616667	     -9.79429081	      1.77503295	     12.54202620	     -0.73271997	      0.86667447	      0.26503203	     39.68405284	     -5.91815973	     -9.71302535	     -7.81616713	      2.53844637	     -0.32660473	      5.83682239	    -11.76496106	      1.48441963	      7.69698709	    -10.37392731	     12.11734143	      4.77131295	     18.59352507	      3.78572834	     -5.09758385	    -14.75954046
      0.62033333	     -9.83182815	      1.64888221	     12.54766238	     -0.72671030	      0.86571701	      0.26543988	     39.76146679	     -5.72016728	     -9.61123685	     -8.41815394	      2.26488887	     -0.60067991	      5.81025198	    -11.82705343	      1.25837101	      7.54745604	    -10.89921895	     11.94479520	      4.91795222	     18.68990049	      3.89438742	     -4.88790213	    -14.67434950
      0.62450000	     -9.86647492	      1.52063192	     12.53939847	     -0.72064667	      0.86480431	      0.26589172	     39.83111762	     -5.50638500	     -9.51629389	     -9.02741178	      1.93071199	     -0.90856696	      5.80558812	    -11.88074893	      1.03082060	      7.38583991	    -11.44469996	     11.74082992	      5.05759312	     18.81900048	      3.99101907	     -4.68324695	    -14.57759472
      0.62866667	     -9.89977204	      1.38020260	     12.51430812	     -0.71452719	      0.86392156	      0.26639060	     39.88947176	     -5.26424319	     -9.40262340	     -9.62350102	      1.51906180	     -1.29264467	      5.82353817	    -11.92841169	      0.78952801	      7.19675363	    -12.00599307	     11.50910766	      5.22114609	     19.01232519	      4.09994428	     -4.45663304	    -14.45555366
      0.63283333	     -9.86542487	      1.21598737	     12.45470349	     -0.70831966	      0.86315627	      0.26696544	     39.86627774	     -4.96198326	     -9.29813188	    -10.20162385	      1.06800027	     -1.70342515	      6.02459666	    -12.01654328	      0.49975659	      6.83882515	    -12.62632615	     11.31074047	      5.56738062	     19.97696207	      4.13821210	     -4.18301387	    -14.32266318
      0.63700000	     -9.94638928	      1.09161715	     12.43572734	     -0.70217461	      0.86230810	      0.26748831	     39.96685671	     -4.73898754	     -9.16186045	    -10.80388776	      0.55332879	     -2.20136416	      6.10954018	    -11.98386680	      0.29945528	      6.78107339	    -13.24611227	     10.97272466	      5.47491052	     20.34365592	      4.29351813	     -4.00405315	    -14.18059538
      0.64116667	     -9.99932865	      0.92555976	     12.37503643	     -0.69588879	      0.86152567	      0.26806750	     40.03883568	     -4.44997741	     -9.07104274	    -11.40585084	     -0.03016932	     -2.67015257	      6.19773673	    -11.98423771	      0.04577296	      6.61368967	    -13.84889695	     10.61309135	      5.54519677	     20.67860514	      4.45893362	     -3.74540225	    -14.03292033
      0.64533333	    -10.03642853	      0.75625340	     12.30506815	     -0.68958721	      0.86081040	      0.26868045	     40.08352587	     -4.14332743	     -8.94649165	    -11.98685555	     -0.64256142	     -3.19523338	      6.31790544	    -11.97058789	     -0.21406767	      6.41489825	    -14.51386898	     10.22748071	      5.61352853	     21.09006317	      4.59588649	     -3.47605733	    -13.86808100
      0.64950000	    -10.08295519	      0.58602096	     12.22266145	     -0.68324586	      0.86010983	      0.26932533	     40.15522871	     -3.83719764	     -8.85183021	    -12.61026982	     -1.21450807	     -3.60544546	      7.88393920	    -11.91732751	     -0.48019712	      6.12809420	    -15.22011269	      9.71655530	      5.71711974	     25.91118977	      4.73397683	     -3.20755989	    -13.75412164
      0.65366667	    -10.14033456	      0.39953597	     12.14119184	     -0.67685755	      0.85947631	      0.26993241	     40.22412061	     -3.52284222	     -8.77646347	    -13.20919181	     -1.84402822	     -4.00444531	      7.87257532	    -11.86635098	     -0.73795084	      6.01931706	    -15.90688749	      9.17299062	      5.60540777	     25.95137687	      4.90849684	     -2.89834569	    -13.60417265
      0.65783333	    -10.18891600	      0.21779135	     12.04030176	     -0.67045957	      0.85886882	      0.27063249	     40.30947383	     -3.19116392	     -8.65257564	    -13.86550287	     -2.46607049	     -4.60480742	      7.87990014	    -11.78854802	     -0.99789747	      5.83609833	    -16.66356000	      8.70557213	      5.58943679	     26.06296218	      5.03969627	     -2.63425685	    -13.40265694
      0.66200000	    -10.25250661	      0.02046886	     11.93295947	     -0.66402430	      0.85830290	      0.27134024	     40.40208258	     -2.84423637	     -8.51309426	    -14.50646607	     -3.09435782	     -5.17793012	      7.90715100	    -11.66947710	     -1.27073098	      5.63577584	    -17.45554787	      8.16964229	      5.60628067	     26.24979853	      5.22079619	     -2.32840264	    -13.19511869
      0.66616667	    -10.32870279	     -0.18870925	     11.81688591	     -0.65755062	      0.85776489	      0.27203811	     40.52524542	     -2.49535856	     -8.41030995	    -15.19719757	     -3.61232272	     -5.57855362	      7.93379223	    -11.52189478	     -1.54492936	      5.46758432	    -18.27011690	      7.53007544	      5.57048352	     26.41596378	      5.40226478	     -2.00485302	    -13.03898248
      0.67033333	    -10.38694992	     -0.38415069	     11.69694927	     -0.65109106	      0.85729151	      0.27276766	     40.64157251	     -2.15093852	     -8.28638695	    -15.92066142	     -4.14598563	     -6.14210374	      7.97990248	    -11.35118814	     -1.81182192	      5.25430964	    -19.16662335	      6.96205054	      5.56251050	     26.69875354	      5.58112908	     -1.70150798	    -12.81297044
      0.67450000	    -10.43681757	     -0.62781174	     11.59332129	     -0.64458086	      0.85688232	      0.27348077	     40.74835813	     -1.78216825	     -8.24278267	    -16.65699452	     -4.54516184	     -6.50492771	      8.66639822	    -11.13567369	     -2.14913561	      4.98397548	    -20.13008500	      6.30127630	      5.66787817	     30.53238475	      5.74285847	     -1.33007404	    -12.65437174
      0.67866667	    -10.50305120	     -0.82334898	     11.43710299	     -0.63804984	      0.85650146	      0.27421648	     40.89781314	     -1.43113249	     -8.10515432	    -17.46624461	     -4.83438395	     -6.81538263	      8.65759369	    -10.94767230	     -2.38940804	      4.83682218	    -21.02887718	      5.52361605	      5.46353718	     30.55617229	      5.91875585	     -1.00351828	    -12.52237318
      0.68283333	    -10.57636866	     -1.02936009	     11.30275782	     -0.63156757	      0.85614507	      0.27496285	     41.06396201	     -1.08343045	     -7.98928038	    -18.29857381	     -5.15004227	     -7.25799091	      8.64208233	    -10.67704097	     -2.65334219	      4.65408106	    -22.05686506	      4.84313428	      5.38616757	     30.64594931	      6.10369934	     -0.68892538	    -12.28370475
      0.68700000	    -10.61854492	     -1.25550005	     11.16209961	     -0.62501913	      0.85589772	      0.27568168	     41.19499576	     -0.71779845	     -7.90391618	    -19.15169775	     -5.25324074	     -7.47508830	      8.63429928	    -10.42801818	     -2.94038865	      4.47847799	    -23.08558888	      4.03683795	      5.28441663	     30.70361221	      6.24764024	     -0.31716891	    -12.16138679
      0.69116667	    -10.67300551	     -1.47772653	     11.01901932	     -0.61849620	      0.85566580	      0.27641778	     41.34736460	     -0.35571929	     -7.80848945	    -20.03126088	     -5.32257463	     -7.72673910	      8.62146296	    -10.12258422	     -3.22296588	      4.28397047	    -24.18764591	      3.25619933	      5.20480318	     30.77932631	      6.41056713	      0.03813928	    -11.99640655
      0.69533333	    -10.73033601	     -1.69632258	     10.87832361	     -0.61200935	      0.85546193	      0.27716473	     41.50994932	     -0.00055693	     -7.72186290	    -20.93214637	     -5.36907682	     -7.99834508	      8.58831684	     -9.75934867	     -3.51059002	      4.04620021	    -25.38216623	      2.48499011	      5.18735732	     30.93936861	      6.57948457	      0.37061404	    -11.76554252
      0.69950000	    -10.73697495	     -1.93304887	     10.72946878	     -0.60546100	      0.85540173	      0.27788590	     41.59967174	      0.38283125	     -7.64491183	    -21.81733112	     -5.22574786	     -8.13747414	      8.57251568	     -9.45392811	     -3.81738125	      3.84594859	    -26.54501893	      1.60706306	      5.06770295	     31.01375221	      6.68185564	      0.76570769	    -11.65932889
